<svg xmlns="http://www.w3.org/2000/svg" width="156.505" height="81.639" viewBox="0 0 156.505 81.639"><g id="Group_156" data-name="Group 156" transform="translate(-141 -74)"><g id="Group_18" data-name="Group 18" transform="translate(141 74)"><path id="Path_40" data-name="Path 40" d="M127.962,89.423V72.857H98.949v4.485a.82.82,0,0,0,.824.824h24.711V89.514H99.773A12.167,12.167,0,0,1,87.6,77.342V57.573A12.167,12.167,0,0,1,99.773,45.4h24.711V56.749H99.773a.82.82,0,0,0-.824.824v3.936h29.013V57.573A12.167,12.167,0,0,1,140.134,45.4h16.017a12.167,12.167,0,0,1,12.173,12.173v31.85H156.975V72.857H139.311V89.423Zm29.013-27.915V57.573a.82.82,0,0,0-.824-.824H140.134a.82.82,0,0,0-.824.824v3.936Z" transform="translate(-11.819 -7.875)" fill="#fff"></path><path id="Path_41" data-name="Path 41" d="M68.1,61.5A12.226,12.226,0,0,1,80.277,73.672v3.661A12.167,12.167,0,0,1,68.1,89.506H40.373A12.167,12.167,0,0,1,28.2,77.333V45.392H39.549v31.85a.82.82,0,0,0,.824.824h27.64a.82.82,0,0,0,.824-.824V73.581a.82.82,0,0,0-.824-.824H54.284A12.167,12.167,0,0,1,42.112,60.584V57.473A12.167,12.167,0,0,1,54.284,45.3H79.636V56.649H54.376a.82.82,0,0,0-.824.824v3.112a.82.82,0,0,0,.824.824H68.1Z" transform="translate(-6.783 -7.867)" fill="#fff"></path><circle id="Ellipse_1" data-name="Ellipse 1" cx="5.949" cy="5.949" r="5.949" transform="translate(20.959 20.959)" fill="#fff"></circle><path id="Path_42" data-name="Path 42" d="M21.549,46.135a17.8,17.8,0,0,1-7.779-14.827,18.03,18.03,0,1,1,35.053,5.949h9.244a25.762,25.762,0,0,0,.641-5.949A26.954,26.954,0,1,0,21.549,56.2V46.135Z" transform="translate(-4.8 -4.4)" fill="#fff" fill-rule="evenodd"></path></g></g></svg>