<svg xmlns="http://www.w3.org/2000/svg" xmlns:xlink="http://www.w3.org/1999/xlink" width="812" height="719" viewBox="0 0 812 719"><defs><clipPath id="clip-path"><rect id="Rectangle_90" data-name="Rectangle 90" width="812" height="719" rx="10" fill="#00303c"></rect></clipPath><clipPath id="clip-path-2"><rect id="Rectangle_46" data-name="Rectangle 46" width="110.338" height="138.276" fill="#6eb43f"></rect></clipPath><clipPath id="clip-path-3"><rect id="Rectangle_35" data-name="Rectangle 35" width="120.832" height="128.376" fill="#6eb43f"></rect></clipPath><clipPath id="clip-path-4"><rect id="Rectangle_45" data-name="Rectangle 45" width="109.697" height="130.941" fill="#6eb43f"></rect></clipPath><clipPath id="clip-path-5"><rect id="Rectangle_72" data-name="Rectangle 72" width="115.113" height="129.062" fill="#6eb43f"></rect></clipPath><clipPath id="clip-path-6"><rect id="Rectangle_86" data-name="Rectangle 86" width="104.994" height="130.941" fill="#6eb43f"></rect></clipPath><clipPath id="clip-path-7"><rect id="Rectangle_34" data-name="Rectangle 34" width="78.636" height="130.941" fill="#6eb43f"></rect></clipPath><clipPath id="clip-path-8"><rect id="Rectangle_57" data-name="Rectangle 57" width="107.051" height="137.096" fill="#6eb43f"></rect></clipPath><clipPath id="clip-path-9"><rect id="Rectangle_80" data-name="Rectangle 80" width="107.467" height="137.096" fill="#6eb43f"></rect></clipPath><clipPath id="clip-path-10"><rect id="Rectangle_55" data-name="Rectangle 55" width="102.415" height="137.096" fill="#6eb43f"></rect></clipPath><clipPath id="clip-path-11"><rect id="Rectangle_33" data-name="Rectangle 33" width="71.954" height="137.096" fill="#6eb43f"></rect></clipPath><clipPath id="clip-path-12"><rect id="Rectangle_68" data-name="Rectangle 68" width="93.849" height="137.096" fill="#6eb43f"></rect></clipPath><clipPath id="clip-path-13"><rect id="Rectangle_42" data-name="Rectangle 42" width="91.083" height="137.096" fill="#6eb43f"></rect></clipPath></defs><g id="Mask_Group_1" data-name="Mask Group 1" opacity="0.488" clip-path="url(#clip-path)"><g id="Group_118" data-name="Group 118" transform="translate(-43.318 -30.736)"><g id="Group_117" data-name="Group 117"><g id="Group_98" data-name="Group 98"><g id="Group_66" data-name="Group 66" clip-path="url(#clip-path-2)"><path id="Path_125" data-name="Path 125" d="M100.389,293.81A22.025,22.025,0,0,1,81.82,283.375L72.871,269.3a48.921,48.921,0,0,1-7.591-26.3V221.98h3.415v21.014A45.209,45.209,0,0,0,75.709,267.3l8.949,14.077a18.416,18.416,0,0,0,31.462,0l8.949-14.077a45.207,45.207,0,0,0,7.015-24.307V221.98H135.5v21.014a48.919,48.919,0,0,1-7.591,26.3l-8.949,14.077a22.025,22.025,0,0,1-18.569,10.436" transform="translate(-46.704 -155.534)" fill="#6eb43f"></path><path id="Path_126" data-name="Path 126" d="M308.705,245.643h-2.657v-3.592h2.657a3.371,3.371,0,0,0,3.224-2.613L315.1,226.81a5.963,5.963,0,0,0-.958-4.991,5.353,5.353,0,0,0-4.343-2.248V215.98a8.688,8.688,0,0,1,7.048,3.648,9.674,9.674,0,0,1,1.554,8.1l-3.168,12.628a6.823,6.823,0,0,1-6.526,5.288" transform="translate(-218.961 -151.33)" fill="#6eb43f"></path><path id="Path_127" data-name="Path 127" d="M39.472,245.643H36.815a6.823,6.823,0,0,1-6.526-5.288l-3.168-12.628a9.675,9.675,0,0,1,1.554-8.1,8.689,8.689,0,0,1,7.048-3.647v3.592a5.354,5.354,0,0,0-4.343,2.247,5.962,5.962,0,0,0-.958,4.991l3.168,12.628a3.371,3.371,0,0,0,3.224,2.613h2.657Z" transform="translate(-19.189 -151.33)" fill="#6eb43f"></path><path id="Path_128" data-name="Path 128" d="M107.872,86.721H2.466A2.48,2.48,0,0,1,.059,84.683a2.616,2.616,0,0,1,1.38-2.912l2.113-1.017A4.45,4.45,0,0,0,6,76.612c-.012-.427-.018-.866-.018-1.309A51.392,51.392,0,0,1,16.393,43.974,47.837,47.837,0,0,1,42.53,26.423l.8,3.492a44.418,44.418,0,0,0-24.268,16.3A47.718,47.718,0,0,0,9.4,75.3q0,.609.017,1.21a8.183,8.183,0,0,1-3.02,6.617h97.121l-.9-.434a8.122,8.122,0,0,1-4.446-7.353V75.3a47.7,47.7,0,0,0-9.723-29.164,44.377,44.377,0,0,0-24.4-16.269l.786-3.5A47.793,47.793,0,0,1,91.11,43.893,52.082,52.082,0,0,1,101.582,75.3v.041a4.507,4.507,0,0,0,2.454,4.086L108.9,81.77a2.618,2.618,0,0,1,1.381,2.915,2.48,2.48,0,0,1-2.408,2.035" transform="translate(0 -18.479)" fill="#6eb43f"></path><path id="Path_129" data-name="Path 129" d="M169.792,36.378h-3.415V5.553a1.916,1.916,0,0,0-1.864-1.961H150.146a1.916,1.916,0,0,0-1.863,1.961V36.378h-3.415V5.553A5.427,5.427,0,0,1,150.146,0h14.368a5.427,5.427,0,0,1,5.278,5.553Z" transform="translate(-103.646 0)" fill="#6eb43f"></path></g></g><g id="Group_99" data-name="Group 99" transform="translate(162 4.842)"><g id="Group_58" data-name="Group 58" clip-path="url(#clip-path-3)"><path id="Path_91" data-name="Path 91" d="M3.255,115.206H0c0-11.063,2.45-26.954,2.8-29.2C1.069,70.3,3.218,53.085,5.334,41.38A25.451,25.451,0,0,1,18.208,23.453l11.362-6.02,8.318-4.428A15.071,15.071,0,0,0,45.124,0h3.255a18.528,18.528,0,0,1-8.933,16.012l-.058.033L31.036,20.49,19.672,26.511A22.021,22.021,0,0,0,8.531,42.02c-2.084,11.529-4.2,28.492-2.467,43.827l.028.245-.039.243c-.028.174-2.8,17.488-2.8,28.871" fill="#6eb43f"></path><path id="Path_92" data-name="Path 92" d="M93.54,245.385H90.285c0-5.022-.063-10.076-.186-15.022l-1.135-23.745c-1.98-27.57-5.546-41.872-5.581-42.013l3.145-.883c.149.588,3.678,14.713,5.684,42.66l0,.043,1.138,23.828c.124,4.982.188,10.074.188,15.133" transform="translate(-60.767 -117.008)" fill="#6eb43f"></path><path id="Path_93" data-name="Path 93" d="M78.845,297.324H75.59V281.078A43.231,43.231,0,0,1,77.834,267.3l3.981-14.082,3.12.976L80.916,268.4a39.651,39.651,0,0,0-2.071,12.676Z" transform="translate(-55.088 -180.971)" fill="#6eb43f"></path><path id="Path_94" data-name="Path 94" d="M315.509,115.206h-3.255c0-11.388-2.77-28.7-2.8-28.871l-.039-.243.028-.245c1.737-15.335-.383-32.3-2.467-43.828a22.02,22.02,0,0,0-11.14-15.508l-11.362-6.02-8.412-4.479A18.528,18.528,0,0,1,267.13,0h3.255a15.071,15.071,0,0,0,7.237,13.006l8.321,4.429L297.3,23.453a25.452,25.452,0,0,1,12.874,17.925c2.116,11.707,4.265,28.925,2.529,44.628.355,2.245,2.8,18.136,2.8,29.2" transform="translate(-194.677)" fill="#6eb43f"></path><path id="Path_95" data-name="Path 95" d="M327.925,245.385H324.67c0-5.059.063-10.15.188-15.133v-.041L326,206.384c2.007-27.947,5.535-42.075,5.684-42.663l3.145.883c-.036.141-3.6,14.446-5.581,42.016l-1.135,23.742c-.123,4.946-.186,10-.186,15.022" transform="translate(-236.611 -117.008)" fill="#6eb43f"></path><path id="Path_96" data-name="Path 96" d="M344.8,297.324h-3.255V281.078a39.648,39.648,0,0,0-2.071-12.676l-.026-.084L335.459,254.2l3.12-.976L342.56,267.3a43.231,43.231,0,0,1,2.244,13.777Z" transform="translate(-244.473 -180.971)" fill="#6eb43f"></path><path id="Path_97" data-name="Path 97" d="M136.824,296.306a118.059,118.059,0,0,1-16.254-1,50.8,50.8,0,0,1-10.939-2.619,13.78,13.78,0,0,1-4.786-2.661l2.271-2.453-.025-.025a12.237,12.237,0,0,0,3.656,1.922A47.75,47.75,0,0,0,121,291.91a114.96,114.96,0,0,0,15.822.972,114.958,114.958,0,0,0,15.822-.972,53.553,53.553,0,0,0,8.575-1.854c.621-.2,1.186-.4,1.674-.586a12.265,12.265,0,0,0,3.662-1.925l-.025.025,2.271,2.453a13.786,13.786,0,0,1-4.788,2.662c-.549.213-1.156.426-1.852.648a56.638,56.638,0,0,1-9.086,1.97,118.067,118.067,0,0,1-16.254,1" transform="translate(-76.407 -205.503)" fill="#6eb43f"></path><path id="Path_98" data-name="Path 98" d="M140.732,416.192c-23.964,0-29.924-5.4-30.525-6.01l2.27-2.454-.026-.025c.014.013,1.395,1.279,5.561,2.532,3.844,1.156,10.906,2.534,22.719,2.534s18.875-1.378,22.719-2.534c4.166-1.253,5.548-2.519,5.561-2.532l-.026.025,2.27,2.454c-.6.615-6.561,6.01-30.525,6.01" transform="translate(-80.316 -291.378)" fill="#6eb43f"></path><path id="Path_99" data-name="Path 99" d="M134.614,76.883a50.109,50.109,0,0,0-5.549-4.442L113.521,61.725l1.784-2.864,15.544,10.717a53.359,53.359,0,0,1,5.914,4.734Z" transform="translate(-82.731 -42.067)" fill="#6eb43f"></path><path id="Path_100" data-name="Path 100" d="M233.711,191.349l-7.934-28.831a53.57,53.57,0,0,0-7.849-16.682l2.615-2.038a57.048,57.048,0,0,1,8.36,17.768l7.933,28.831Z" transform="translate(-158.82 -102.77)" fill="#6eb43f"></path><path id="Path_101" data-name="Path 101" d="M264.437,167.373l-8.11-29.473a64.919,64.919,0,0,0-10.778-21.981l2.55-2.127a68.392,68.392,0,0,1,11.354,23.157l8.11,29.473Z" transform="translate(-178.949 -81.324)" fill="#6eb43f"></path><path id="Path_102" data-name="Path 102" d="M170.08,52.4a61.649,61.649,0,0,0-7.056-5.68L151.96,39.095l1.784-2.864,11.064,7.63a64.993,64.993,0,0,1,7.433,5.983Z" transform="translate(-110.744 -25.894)" fill="#6eb43f"></path><path id="Path_103" data-name="Path 103" d="M121.913,111.942l-3.126-.952,8.11-29.474A68.394,68.394,0,0,1,138.251,58.36a66.18,66.18,0,0,1,7.653-8.516,64.962,64.962,0,0,1,7.433-5.984L164.4,36.231l1.785,2.863-11.063,7.629a61.611,61.611,0,0,0-7.057,5.681,62.767,62.767,0,0,0-7.264,8.082,64.922,64.922,0,0,0-10.778,21.981Z" transform="translate(-86.569 -25.894)" fill="#6eb43f"></path><path id="Path_104" data-name="Path 104" d="M160.983,130.647l-3.126-.952,7.933-28.831A57.051,57.051,0,0,1,174.15,83.1a54.974,54.974,0,0,1,7.7-8.786,53.353,53.353,0,0,1,5.91-4.731L203.3,58.862l1.784,2.863L189.54,72.442a50.1,50.1,0,0,0-5.549,4.442,51.6,51.6,0,0,0-7.226,8.25,53.57,53.57,0,0,0-7.849,16.682Z" transform="translate(-115.042 -42.068)" fill="#6eb43f"></path></g></g><g id="Group_100" data-name="Group 100" transform="translate(335 3.459)"><g id="Group_64" data-name="Group 64" clip-path="url(#clip-path-4)"><path id="Path_119" data-name="Path 119" d="M103.114,213.008H6.583A6.768,6.768,0,0,1,0,206.083V121.456a6.768,6.768,0,0,1,6.583-6.925h96.531a6.768,6.768,0,0,1,6.583,6.925v84.627a6.768,6.768,0,0,1-6.583,6.925M6.583,117.932a3.444,3.444,0,0,0-3.35,3.523v84.627a3.444,3.444,0,0,0,3.35,3.523h96.531a3.444,3.444,0,0,0,3.35-3.523V121.456a3.444,3.444,0,0,0-3.35-3.523Z" transform="translate(0 -82.067)" fill="#6eb43f"></path><path id="Path_120" data-name="Path 120" d="M115.5,236.04c-17.908,0-32.476-15.326-32.476-34.164s14.569-34.164,32.476-34.164,32.476,15.326,32.476,34.164S133.41,236.04,115.5,236.04m0-64.926c-16.125,0-29.243,13.8-29.243,30.762s13.118,30.762,29.243,30.762,29.243-13.8,29.243-30.762-13.118-30.762-29.243-30.762" transform="translate(-60.654 -120.174)" fill="#6eb43f"></path><path id="Path_122" data-name="Path 122" d="M163.624,260.84H151.041V249.525H140.285V236.288h10.756V224.974h12.583v11.314H174.38v13.237H163.624Zm-9.349-3.4h6.116V246.123h10.756V239.69H160.39V228.375h-6.116V239.69H143.518v6.434h10.756Z" transform="translate(-102.484 -161.204)" fill="#6eb43f"></path><path id="Path_123" data-name="Path 123" d="M163.4,50.289h-3.234V39.472A5.933,5.933,0,0,0,154.4,33.4h-28.92a5.933,5.933,0,0,0-5.771,6.07V50.289h-3.233V39.472a9.257,9.257,0,0,1,9-9.472H154.4a9.257,9.257,0,0,1,9,9.472Z" transform="translate(-85.088 -21.496)" fill="#6eb43f"></path><path id="Path_124" data-name="Path 124" d="M149.568,28.793h-3.233V17.976c0-8.036-6.215-14.574-13.854-14.574H103.56c-7.639,0-13.854,6.538-13.854,14.574V28.793H86.472V17.976C86.472,8.064,94.138,0,103.56,0h28.92c9.422,0,17.088,8.064,17.088,17.976Z" transform="translate(-63.171)" fill="#6eb43f"></path><rect id="Rectangle_43" data-name="Rectangle 43" width="25.315" height="3.401" transform="translate(2.301 106.796)" fill="#6eb43f"></rect><rect id="Rectangle_44" data-name="Rectangle 44" width="25.315" height="3.401" transform="translate(82.081 106.796)" fill="#6eb43f"></rect></g></g><g id="Group_101" data-name="Group 101" transform="translate(497 3.459)"><rect id="Rectangle_70" data-name="Rectangle 70" width="3.738" height="27.161" transform="translate(63.057 103.78)" fill="#6eb43f"></rect><rect id="Rectangle_71" data-name="Rectangle 71" width="3.743" height="27.161" transform="translate(48.312 103.78)" fill="#6eb43f"></rect><g id="Group_83" data-name="Group 83" transform="translate(0 0)"><g id="Group_82" data-name="Group 82" clip-path="url(#clip-path-5)"><path id="Path_186" data-name="Path 186" d="M106.335,107.316H8.789a8.622,8.622,0,0,1-7.6-4.611,9.53,9.53,0,0,1,0-9.222L49.967,4.611a8.557,8.557,0,0,1,15.185,0L113.93,93.483a9.53,9.53,0,0,1,0,9.222,8.62,8.62,0,0,1-7.6,4.611M57.562,3.4a5.443,5.443,0,0,0-4.8,2.911L3.986,95.183a6.022,6.022,0,0,0,0,5.823,5.445,5.445,0,0,0,4.8,2.911h97.546a5.443,5.443,0,0,0,4.8-2.911,6.023,6.023,0,0,0,0-5.823L62.355,6.311A5.441,5.441,0,0,0,57.562,3.4" transform="translate(-0.003 0.002)" fill="#6eb43f"></path><path id="Path_187" data-name="Path 187" d="M16.9,40.357h-.776a5.714,5.714,0,0,1-5.555-5.843V12.973A5.714,5.714,0,0,1,16.129,7.13H16.9a5.71,5.71,0,0,1,5.55,5.843v21.54a5.71,5.71,0,0,1-5.55,5.843m-.776-29.828a2.392,2.392,0,0,0-2.323,2.444v21.54a2.389,2.389,0,0,0,2.323,2.444H16.9a2.389,2.389,0,0,0,2.323-2.444V12.973A2.392,2.392,0,0,0,16.9,10.529Z" transform="translate(41.04 29.482)" fill="#6eb43f"></path><path id="Path_188" data-name="Path 188" d="M17.222,28.838a7.02,7.02,0,0,1-6.829-7.184,7.022,7.022,0,0,1,6.829-7.189,7.022,7.022,0,0,1,6.829,7.189,7.02,7.02,0,0,1-6.829,7.184m0-10.973a3.792,3.792,0,0,0,0,7.574,3.792,3.792,0,0,0,0-7.574" transform="translate(40.337 59.815)" fill="#6eb43f"></path></g></g></g><g id="Group_102" data-name="Group 102" transform="translate(664 3.459)"><g id="Group_90" data-name="Group 90" clip-path="url(#clip-path-6)"><path id="Path_197" data-name="Path 197" d="M48.1,178.7H7.75A7.968,7.968,0,0,1,0,170.547v-48.13a7.968,7.968,0,0,1,7.75-8.153H48.1a7.968,7.968,0,0,1,7.75,8.153v48.13A7.968,7.968,0,0,1,48.1,178.7M7.75,117.756a4.555,4.555,0,0,0-4.43,4.661v48.13a4.555,4.555,0,0,0,4.43,4.661H48.1a4.555,4.555,0,0,0,4.43-4.661v-48.13a4.555,4.555,0,0,0-4.43-4.661Z" transform="translate(0 -81.011)" fill="#6eb43f"></path><path id="Path_199" data-name="Path 199" d="M68.638,92.967h-40V84.9A5.479,5.479,0,0,1,33.966,79.3H63.309A5.479,5.479,0,0,1,68.638,84.9ZM31.957,89.474H65.318V84.9a2.066,2.066,0,0,0-2.009-2.114H33.966A2.066,2.066,0,0,0,31.957,84.9Z" transform="translate(-20.715 -56.222)" fill="#6eb43f"></path><path id="Path_200" data-name="Path 200" d="M78.621,26.569H50.986V0h3.32V23.077h21V0h3.32Z" transform="translate(-36.881 0)" fill="#6eb43f"></path><path id="Path_201" data-name="Path 201" d="M63.309,337.348H33.966a5.479,5.479,0,0,1-5.329-5.606V323.68h40v8.062a5.479,5.479,0,0,1-5.329,5.606M31.957,327.172v4.57a2.066,2.066,0,0,0,2.009,2.113H63.309a2.066,2.066,0,0,0,2.009-2.113v-4.57Z" transform="translate(-20.715 -229.484)" fill="#6eb43f"></path><path id="Path_202" data-name="Path 202" d="M78.621,385.215H75.3V362.137h-21v23.078h-3.32v-26.57H78.621Z" transform="translate(-36.881 -254.273)" fill="#6eb43f"></path><path id="Path_203" data-name="Path 203" d="M230.567,108.211H193.8v-3.492h36.765a2.907,2.907,0,0,0,2.828-2.974v-62.8a2.907,2.907,0,0,0-2.828-2.974H182.1V32.48h48.472a6.32,6.32,0,0,1,6.147,6.466v62.8a6.32,6.32,0,0,1-6.147,6.467" transform="translate(-131.719 -23.028)" fill="#6eb43f"></path><rect id="Rectangle_81" data-name="Rectangle 81" width="15.85" height="3.492" transform="translate(76.855 26.463)" fill="#6eb43f"></rect><rect id="Rectangle_82" data-name="Rectangle 82" width="31.699" height="3.492" transform="translate(61.005 37.245)" fill="#6eb43f"></rect><rect id="Rectangle_83" data-name="Rectangle 83" width="3.32" height="5.576" transform="translate(70.723 68.444)" fill="#6eb43f"></rect><rect id="Rectangle_84" data-name="Rectangle 84" width="3.32" height="9.092" transform="translate(79.873 64.929)" fill="#6eb43f"></rect><rect id="Rectangle_85" data-name="Rectangle 85" width="3.32" height="14.668" transform="translate(89.024 59.352)" fill="#6eb43f"></rect></g></g><g id="Group_103" data-name="Group 103" transform="translate(820 3.459)"><g id="Group_56" data-name="Group 56" clip-path="url(#clip-path-7)"><path id="Path_81" data-name="Path 81" d="M39.318,45.667C23.012,45.667,8.137,37.255.5,23.713l-.5-.88.5-.88C8.137,8.412,23.012,0,39.318,0S70.5,8.412,78.14,21.954l.5.88-.5.88C70.5,37.255,55.624,45.667,39.318,45.667M3.825,22.834c7.2,11.984,20.7,19.387,35.493,19.387s28.3-7.4,35.493-19.387c-7.2-11.984-20.7-19.387-35.493-19.387s-28.3,7.4-35.493,19.387" fill="#6eb43f"></path><path id="Path_84" data-name="Path 84" d="M107.044,57.86c-7.656,0-13.886-6.553-13.886-14.607s6.229-14.607,13.886-14.607,13.885,6.552,13.885,14.607S114.7,57.86,107.044,57.86m0-25.767c-5.85,0-10.61,5.007-10.61,11.161s4.759,11.161,10.61,11.161,10.609-5.007,10.609-11.161-4.759-11.161-10.609-11.161" transform="translate(-67.726 -20.419)" fill="#6eb43f"></path><path id="Path_85" data-name="Path 85" d="M197.478,189.9H194.2v-1.178c0-1.831.066-3.684.194-5.506l3.267.256c-.123,1.737-.185,3.5-.185,5.25Zm.912-12.783-3.231-.567c.35-2.206.8-4.415,1.34-6.567l3.168.879c-.514,2.05-.943,4.154-1.277,6.256m3.1-12.357-3.075-1.188c.736-2.108,1.574-4.191,2.49-6.193l2.952,1.5c-.871,1.9-1.667,3.882-2.366,5.886m5.268-11.494-2.8-1.8a65.371,65.371,0,0,1,3.617-5.558l2.6,2.093a61.975,61.975,0,0,0-3.425,5.263" transform="translate(-141.184 -104.007)" fill="#6eb43f"></path><path id="Path_86" data-name="Path 86" d="M51.281,189.9H48v-1.178c0-1.746-.062-3.513-.185-5.25l3.267-.256c.129,1.822.194,3.675.194,5.506Zm-4.188-12.783c-.333-2.1-.763-4.207-1.277-6.256l3.168-.879c.539,2.152.99,4.362,1.34,6.567Zm-3.1-12.357c-.7-2-1.5-3.984-2.366-5.886l2.952-1.5c.916,2,1.754,4.085,2.49,6.193Zm-5.268-11.494A61.985,61.985,0,0,0,35.3,148l2.6-2.093a65.371,65.371,0,0,1,3.617,5.558Z" transform="translate(-25.662 -104.007)" fill="#6eb43f"></path><path id="Path_87" data-name="Path 87" d="M141.3,217.681h-3.276v-6.559H141.3Zm0-13.119h-3.276V198H141.3Zm0-13.119h-3.276v-6.56H141.3Z" transform="translate(-100.341 -131.787)" fill="#6eb43f"></path><path id="Path_88" data-name="Path 88" d="M88.831,354.595H85.09v-.578a22.349,22.349,0,0,1,7.987-16.986,21.55,21.55,0,0,0,7.482-16.481V317.7H60.269v2.852a21.551,21.551,0,0,0,7.482,16.481,22.349,22.349,0,0,1,7.987,16.986v.578H72v-.578a18.353,18.353,0,0,0-6.6-13.926,25.551,25.551,0,0,1-8.869-19.541v-6.788H104.3v6.788A25.551,25.551,0,0,1,95.43,340.09a18.353,18.353,0,0,0-6.6,13.926Z" transform="translate(-41.096 -223.653)" fill="#6eb43f"></path><path id="Path_89" data-name="Path 89" d="M89.217,355.2H85.941v-.578a22.1,22.1,0,0,1,7.9-16.8,21.8,21.8,0,0,0,7.568-16.672v-3.1H60.655v3.1a21.8,21.8,0,0,0,7.568,16.672,22.1,22.1,0,0,1,7.9,16.8v.578H72.848v-.578a18.6,18.6,0,0,0-6.686-14.117,25.3,25.3,0,0,1-8.783-19.351v-6.543h47.307v6.543A25.3,25.3,0,0,1,95.9,340.507a18.6,18.6,0,0,0-6.686,14.117Z" transform="translate(-41.714 -224.261)" fill="#6eb43f"></path></g></g></g><g id="Group_116" data-name="Group 116" transform="translate(117.719 196.898)"><g id="Group_110" data-name="Group 110"><g id="Group_74" data-name="Group 74" clip-path="url(#clip-path-8)"><path id="Path_156" data-name="Path 156" d="M156.353,223.262c-13.977,0-25.348-11.961-25.348-26.664s11.371-26.664,25.348-26.664S181.7,181.9,181.7,196.6s-11.371,26.664-25.347,26.664m0-49.894c-12.177,0-22.083,10.421-22.083,23.23s9.906,23.23,22.083,23.23,22.083-10.421,22.083-23.23-9.906-23.23-22.083-23.23" transform="translate(-95.365 -121.301)" fill="#6eb43f"></path><path id="Path_158" data-name="Path 158" d="M158.187,190.7H141.415V185.31a8.832,8.832,0,0,0-5.249-8.159l-.148-.064a8.119,8.119,0,0,0-9.236,1.848l-2.468,2.6-2.308-2.429,2.468-2.6a11.255,11.255,0,0,1,12.8-2.59l.141.061a12.259,12.259,0,0,1,7.266,11.333v1.955h10.243V185.31a12.26,12.26,0,0,1,7.272-11.335l.136-.059a11.253,11.253,0,0,1,12.8,2.591l1.314,1.381,7.243-7.62-1.314-1.381a12.753,12.753,0,0,1-2.462-13.465l.055-.14a11.658,11.658,0,0,1,10.776-7.652H192.6V136.855h-1.859a11.657,11.657,0,0,1-10.775-7.65l-.058-.149a12.75,12.75,0,0,1,2.465-13.457l1.314-1.382-7.243-7.62-1.313,1.382a11.255,11.255,0,0,1-12.8,2.59l-.133-.058a12.261,12.261,0,0,1-7.274-11.336V97.22H144.679v1.955a12.261,12.261,0,0,1-7.272,11.335l-.136.059-1.253-3.171.149-.065a8.832,8.832,0,0,0,5.248-8.159V93.786h16.773v5.389a8.832,8.832,0,0,0,5.249,8.159l.148.064a8.117,8.117,0,0,0,9.237-1.848l3.622-3.81,11.86,12.477-3.622,3.81a9.2,9.2,0,0,0-1.757,9.715l.061.156a8.4,8.4,0,0,0,7.756,5.522h5.124v17.644h-5.123a8.4,8.4,0,0,0-7.757,5.523l-.062.158a9.2,9.2,0,0,0,1.758,9.714l3.622,3.81-11.86,12.477-3.622-3.81a8.118,8.118,0,0,0-9.236-1.849l-.143.062a8.834,8.834,0,0,0-5.255,8.162Z" transform="translate(-88.813 -66.946)" fill="#6eb43f"></path><path id="Path_159" data-name="Path 159" d="M89.341,115.431,87.033,113,97.739,101.74l3.622,3.81A8.117,8.117,0,0,0,110.6,107.4l.15-.065a8.832,8.832,0,0,0,5.248-8.159V93.786h16.773v5.389a8.832,8.832,0,0,0,5.249,8.159l.147.064-1.254,3.171-.134-.059A12.261,12.261,0,0,1,129.5,99.175V97.22H119.259v1.955a12.261,12.261,0,0,1-7.272,11.335l-.136.059a11.255,11.255,0,0,1-12.8-2.591L97.739,106.6Z" transform="translate(-63.356 -66.946)" fill="#6eb43f"></path><path id="Path_160" data-name="Path 160" d="M27.611,456.756a17.294,17.294,0,0,0-25.3,0L0,454.327a20.448,20.448,0,0,1,29.919,0Z" transform="translate(0 -319.66)" fill="#6eb43f"></path><path id="Path_161" data-name="Path 161" d="M45.466,405.574H42.2V394.408H37.368v11.166H34.1v-14.6H45.466Z" transform="translate(-24.825 -279.083)" fill="#6eb43f"></path><path id="Path_162" data-name="Path 162" d="M27.939,251.007H8.142a4.02,4.02,0,0,1-3.909-4.113v-53.85a2.9,2.9,0,0,1,2.819-2.965h9.8a2.9,2.9,0,0,1,2.819,2.965v4.867a.2.2,0,0,0,.189.2h8.077a4.02,4.02,0,0,1,3.91,4.113v44.671a4.02,4.02,0,0,1-3.91,4.113M7.5,193.513v53.381a.663.663,0,0,0,.645.679h19.8a.663.663,0,0,0,.645-.679V202.223a.663.663,0,0,0-.645-.679H19.863a3.551,3.551,0,0,1-3.454-3.633v-4.4Z" transform="translate(-3.081 -135.681)" fill="#6eb43f"></path><rect id="Rectangle_56" data-name="Rectangle 56" width="7.861" height="3.434" transform="translate(8.92 62.429)" fill="#6eb43f"></rect><path id="Path_163" data-name="Path 163" d="M23.464,51.324H20.2V14.978a2.845,2.845,0,0,0-.375-1.416,6.43,6.43,0,0,1,.036-6.446A2.5,2.5,0,0,0,20.2,5.853,2.46,2.46,0,0,0,19.488,4.1a2.212,2.212,0,0,0-1.7-.666A2.4,2.4,0,0,0,15.6,5.817a2.5,2.5,0,0,0,.346,1.313,6.377,6.377,0,0,1,.029,6.433,2.842,2.842,0,0,0-.375,1.416V51.324H12.338V14.978a6.409,6.409,0,0,1,.847-3.194,2.808,2.808,0,0,0,0-2.833,6.06,6.06,0,0,1-.843-3.184,5.73,5.73,0,0,1,5.3-5.759,5.366,5.366,0,0,1,4.1,1.613,5.95,5.95,0,0,1,1.722,4.233,6.065,6.065,0,0,1-.825,3.067,2.856,2.856,0,0,0-.022,2.864,6.412,6.412,0,0,1,.847,3.194Z" transform="translate(-8.981 0)" fill="#6eb43f"></path></g></g><g id="Group_111" data-name="Group 111" transform="translate(161)"><rect id="Rectangle_74" data-name="Rectangle 74" width="91.753" height="5.332" transform="translate(7.857 131.763)" fill="#6eb43f"></rect><g id="Group_88" data-name="Group 88"><g id="Group_87" data-name="Group 87" clip-path="url(#clip-path-9)"><path id="Path_194" data-name="Path 194" d="M119.432,354.338H116V330.333a5,5,0,0,0-4.868-5.121h-74.9a5,5,0,0,0-4.868,5.121v24.005h-3.43V330.333a8.531,8.531,0,0,1,8.3-8.729h74.9a8.531,8.531,0,0,1,8.3,8.729Z" transform="translate(-19.949 -224.903)" fill="#6eb43f"></path><path id="Path_195" data-name="Path 195" d="M144.723,159.407h-3.43V117.459c0-14.757-11.413-26.763-25.442-26.763S90.409,102.7,90.409,117.459v41.948h-3.43V117.459c0-16.747,12.952-30.372,28.872-30.372s28.872,13.625,28.872,30.372Z" transform="translate(-62.117 -60.901)" fill="#6eb43f"></path><rect id="Rectangle_75" data-name="Rectangle 75" width="3.43" height="17.872" transform="translate(52.018 0)" fill="#6eb43f"></rect><path id="Path_205" data-name="Path 205" d="M1.837.506,5.355.417l-.441,17.43L1.4,17.936Z" transform="translate(12.869 18.772) rotate(-45)" fill="#6eb43f"></path><rect id="Rectangle_77" data-name="Rectangle 77" width="16.989" height="3.608" transform="translate(0 54.721)" fill="#6eb43f"></rect><rect id="Rectangle_78" data-name="Rectangle 78" width="16.989" height="3.608" transform="translate(90.478 54.721)" fill="#6eb43f"></rect><path id="Path_206" data-name="Path 206" d="M.506,1.837,17.936,1.4l-.089,3.519L.417,5.355Z" transform="translate(76.847 26.976) rotate(-45)" fill="#6eb43f"></path></g></g></g><g id="Group_112" data-name="Group 112" transform="translate(322)"><g id="Group_72" data-name="Group 72" clip-path="url(#clip-path-10)"><path id="Path_153" data-name="Path 153" d="M218.689,137.1H185.67a10.184,10.184,0,0,1-9.9-10.419V39.507l1.157-.406a46.145,46.145,0,0,0,13.427-8.289A37.291,37.291,0,0,0,203.54,1.781V0H219.38V42.334a7.732,7.732,0,0,0,7.52,7.911h1.693v76.432a10.183,10.183,0,0,1-9.9,10.419M179.151,42.024v84.653a6.7,6.7,0,0,0,6.519,6.858h33.019a6.7,6.7,0,0,0,6.519-6.858V53.668a11.328,11.328,0,0,1-9.213-11.334V3.561h-9.1a41.245,41.245,0,0,1-14.462,30.062,50.459,50.459,0,0,1-13.279,8.4" transform="translate(-126.178)" fill="#6eb43f"></path><path id="Path_154" data-name="Path 154" d="M43.435,137.1H10.416a10.183,10.183,0,0,1-9.9-10.42V50.245H2.2a7.732,7.732,0,0,0,7.52-7.911V0H25.566V1.781A37.29,37.29,0,0,0,38.757,30.811,46.146,46.146,0,0,0,52.185,39.1l1.154.408,0,1.281v85.886a10.184,10.184,0,0,1-9.9,10.42M3.9,53.668v73.008a6.7,6.7,0,0,0,6.519,6.858H43.435a6.7,6.7,0,0,0,6.519-6.858V42.024a50.462,50.462,0,0,1-13.279-8.4A41.244,41.244,0,0,1,22.214,3.561h-9.1V42.334A11.328,11.328,0,0,1,3.9,53.668" transform="translate(-0.368)" fill="#6eb43f"></path><path id="Path_155" data-name="Path 155" d="M102.415,298.156H0V277.868H102.415Zm-99.03-3.561H99.03V281.43H3.385Z" transform="translate(0 -195.403)" fill="#6eb43f"></path><path id="Path_204" data-name="Path 204" d="M37.641,6.055h0Z" transform="translate(57.439 88.981)" fill="#6eb43f"></path><rect id="Rectangle_53" data-name="Rectangle 53" width="3.385" height="82.465" transform="translate(19.43 1.781)" fill="#6eb43f"></rect><rect id="Rectangle_54" data-name="Rectangle 54" width="3.385" height="82.465" transform="translate(79.744 1.781)" fill="#6eb43f"></rect></g></g><g id="Group_113" data-name="Group 113" transform="translate(479)"><g id="Group_54" data-name="Group 54" clip-path="url(#clip-path-11)"><path id="Path_78" data-name="Path 78" d="M59.031,293.707H55.555v-.926a53.322,53.322,0,0,1,7.139-27.008,42.372,42.372,0,0,0,5.784-21.452V233.9a4.832,4.832,0,0,0-4.531-5,4.435,4.435,0,0,0-3.31,1.415,4.928,4.928,0,0,0-1.345,3.415v10.594c0,.277,0,.551-.01.824A23.044,23.044,0,0,1,52.62,260.9a21.394,21.394,0,0,1-15.249,6.437H16.453c-7.156,0-12.977,6.124-12.977,13.651v12.72H0v-12.72c0-9.543,7.381-17.308,16.453-17.308H37.371a18.021,18.021,0,0,0,12.846-5.422,19.32,19.32,0,0,0,5.59-13.208c.006-.243.009-.484.009-.728V233.727a8.657,8.657,0,0,1,2.364-6,7.838,7.838,0,0,1,5.811-2.486c4.391.059,7.963,3.942,7.963,8.657v10.423a46.165,46.165,0,0,1-6.3,23.374,49.528,49.528,0,0,0-6.62,25.086Z" transform="translate(0 -156.611)" fill="#6eb43f"></path><path id="Path_79" data-name="Path 79" d="M59.789,229.187a15.877,15.877,0,0,1-8.4-2.424,17.277,17.277,0,0,1-7.641-10.671l-1.905-7.757c-2.289-9.319,3.055-18.86,11.913-21.268s17.928,3.214,20.218,12.532l1.906,7.757a18.128,18.128,0,0,1-1.77,13.23,16.6,16.6,0,0,1-10.144,8.038,15.909,15.909,0,0,1-4.18.562m-1.879-39.02a12.476,12.476,0,0,0-3.28.441c-7,1.9-11.228,9.446-9.418,16.813l1.905,7.757a13.656,13.656,0,0,0,6.041,8.436,12.474,12.474,0,0,0,9.942,1.472,13.125,13.125,0,0,0,8.02-6.354,14.33,14.33,0,0,0,1.4-10.459l-1.906-7.757a13.276,13.276,0,0,0-12.7-10.348" transform="translate(-29.35 -129.682)" fill="#6eb43f"></path><path id="Path_80" data-name="Path 80" d="M23.987,50.238a4.737,4.737,0,0,1-2.506-.724A5.154,5.154,0,0,1,19.2,46.329l-3.833-15.6a5.411,5.411,0,0,1,.528-3.949,4.956,4.956,0,0,1,3.028-2.4l4.82-1.31L23.742,0h3.476l0,25.9-7.427,2.019a1.477,1.477,0,0,0-.9.716,1.612,1.612,0,0,0-.158,1.177l3.833,15.6a1.539,1.539,0,0,0,.68.95,1.4,1.4,0,0,0,1.119.166l36.286-9.865a1.477,1.477,0,0,0,.9-.715,1.612,1.612,0,0,0,.158-1.177l-3.833-15.6a1.539,1.539,0,0,0-.68-.95,1.405,1.405,0,0,0-1.119-.165L32.64,24.427l-.87-3.54,23.439-6.372a4.71,4.71,0,0,1,3.754.556,5.156,5.156,0,0,1,2.281,3.185l3.833,15.6a5.41,5.41,0,0,1-.528,3.949,4.954,4.954,0,0,1-3.028,2.4L25.235,50.07a4.761,4.761,0,0,1-1.248.168" transform="translate(-10.803)" fill="#6eb43f"></path><rect id="Rectangle_31" data-name="Rectangle 31" width="3.476" height="9.575" transform="translate(22.303 4.549)" fill="#6eb43f"></rect><rect id="Rectangle_32" data-name="Rectangle 32" width="3.476" height="19.393" transform="translate(31.668 0)" fill="#6eb43f"></rect></g></g><g id="Group_114" data-name="Group 114" transform="translate(604)"><g id="Group_80" data-name="Group 80" clip-path="url(#clip-path-12)"><path id="Path_174" data-name="Path 174" d="M95.223,63l-3.239-.87c.069-.286,6.787-28.817-7.1-37.4l-1.165-.72.425-1.349a32.325,32.325,0,0,0,.617-17.278c-6.319,3-16.288,2.09-26.779,1.131C43.163,5.158,27.836,3.756,22.149,12.944a11.594,11.594,0,0,0-1.84,6.157,11.978,11.978,0,0,0,.454,3.2l.384,1.382-1.212.669c-14.731,8.126-7.8,37.474-7.727,37.77L8.969,63A75.25,75.25,0,0,1,7.176,45.977c.175-11.569,3.646-19.844,10.061-24.045a14.9,14.9,0,0,1,2.111-10.907C22.43,6.045,27.863,3.2,35.956,2.33c6.839-.737,14.709-.016,22.319.679C69.322,4.019,79.758,4.973,84.85,1.324L86.7,0,87.4,2.306a36,36,0,0,1,.3,20.149c6,4.39,9.217,12.624,9.314,23.928A75.385,75.385,0,0,1,95.223,63" transform="translate(-5.171)" fill="#6eb43f"></path><path id="Path_175" data-name="Path 175" d="M111.275,203.3l-3.162-1.143a44.751,44.751,0,0,0,2.208-13.921V155.885a1.99,1.99,0,0,0-.842-1.656,1.777,1.777,0,0,0-1.769-.183,70.477,70.477,0,0,1-57,0,1.78,1.78,0,0,0-1.769.183,1.991,1.991,0,0,0-.842,1.657v32.351A44.75,44.75,0,0,0,50.3,202.157L47.139,203.3a48.436,48.436,0,0,1-2.389-15.064V155.885a5.58,5.58,0,0,1,2.33-4.582,5,5,0,0,1,4.907-.506,67.312,67.312,0,0,0,54.441,0,5,5,0,0,1,4.907.506,5.58,5.58,0,0,1,2.329,4.581v32.351a48.435,48.435,0,0,1-2.389,15.064" transform="translate(-32.283 -106.305)" fill="#6eb43f"></path><path id="Path_176" data-name="Path 176" d="M288.719,232.284h-2.608v-3.517h2.608a3.313,3.313,0,0,0,3.169-2.568L295,213.8a5.857,5.857,0,0,0-.94-4.9,5.26,5.26,0,0,0-4.266-2.208v-3.517a8.524,8.524,0,0,1,6.914,3.578,9.492,9.492,0,0,1,1.525,7.946l-3.11,12.4a6.693,6.693,0,0,1-6.4,5.187" transform="translate(-206.401 -143.632)" fill="#6eb43f"></path><path id="Path_177" data-name="Path 177" d="M18.607,232.284H16A6.693,6.693,0,0,1,9.6,227.1l-3.11-12.4a9.491,9.491,0,0,1,1.524-7.946,8.523,8.523,0,0,1,6.914-3.579v3.517A5.259,5.259,0,0,0,10.66,208.9a5.857,5.857,0,0,0-.941,4.9l3.11,12.4A3.313,3.313,0,0,0,16,228.767h2.608Z" transform="translate(-4.468 -143.632)" fill="#6eb43f"></path><path id="Path_178" data-name="Path 178" d="M69.889,226.994a7.005,7.005,0,0,1-2.5-.462l-22.642-8.643V201.195l1.321-.3c.433-.1,10.858-2.391,32.713-2.391h.846c21.855,0,32.28,2.293,32.713,2.391l1.321.3v16.695l-22.642,8.643a7.007,7.007,0,0,1-6.014-.483,7.678,7.678,0,0,1-3.632-5.065L79.9,214.106a.7.7,0,0,0-1.387,0l-1.476,6.878a7.678,7.678,0,0,1-3.632,5.065,7.04,7.04,0,0,1-3.515.945m9.317-16.987a4.083,4.083,0,0,1,3.954,3.325l1.476,6.878a4.176,4.176,0,0,0,1.975,2.754,3.808,3.808,0,0,0,3.27.262l20.439-7.8V204.084c-3.429-.6-13.555-2.061-30.691-2.061h-.846c-17.134,0-27.261,1.462-30.691,2.061v11.339l20.439,7.8a3.809,3.809,0,0,0,3.27-.262,4.175,4.175,0,0,0,1.975-2.754l1.476-6.878a4.083,4.083,0,0,1,3.954-3.325" transform="translate(-32.282 -140.33)" fill="#6eb43f"></path><path id="Path_180" data-name="Path 180" d="M259.7,384.18a3.792,3.792,0,0,1-2.046-.574c-1.4-.872-2.848-3.029-1.836-8.349a40.846,40.846,0,0,1,4.639-11.872c4.558-8.072,11.359-14.875,15.539-12.263s1.754,12.15-2.8,20.221a39.337,39.337,0,0,1-7.691,9.964c-2.478,2.178-4.382,2.872-5.8,2.872m14.225-30.121c-1.557,0-6.1,3.167-10.593,11.122a37.191,37.191,0,0,0-4.235,10.765c-.558,2.931-.147,4.378.265,4.636s1.816-.056,4-1.973a35.821,35.821,0,0,0,6.961-9.062c4.924-8.721,5.016-14.749,3.971-15.4a.682.682,0,0,0-.364-.087" transform="translate(-184.307 -247.817)" fill="#6eb43f"></path><path id="Path_181" data-name="Path 181" d="M209.049,354.732c-1.4-.872-2.848-3.029-1.836-8.35a40.844,40.844,0,0,1,4.639-11.871c4.558-8.071,11.358-14.875,15.539-12.263l-1.707,3.023c-1.045-.652-6.033,2.315-10.957,11.036a37.184,37.184,0,0,0-4.236,10.765c-.557,2.932-.147,4.379.265,4.637Z" transform="translate(-149.24 -227.406)" fill="#6eb43f"></path><path id="Path_207" data-name="Path 207" d="M1.439.425,4.91.348,4.551,16.313,1.08,16.39Z" transform="matrix(0.511, -0.86, 0.86, 0.511, 75.344, 98.886)" fill="#6eb43f"></path><path id="Path_208" data-name="Path 208" d="M1.439.425,4.91.348,4.551,16.313,1.08,16.39Z" transform="translate(58.709 128.347) rotate(-59.29)" fill="#6eb43f"></path><path id="Path_182" data-name="Path 182" d="M18.451,384.178c-1.42,0-3.324-.693-5.8-2.872a39.319,39.319,0,0,1-7.69-9.964c-4.558-8.071-6.984-17.609-2.8-20.221s10.981,4.192,15.539,12.263a40.84,40.84,0,0,1,4.639,11.871c1.012,5.321-.439,7.477-1.835,8.35a3.8,3.8,0,0,1-2.046.574M7.832,369.546a35.824,35.824,0,0,0,6.96,9.062c2.181,1.917,3.585,2.23,4,1.973s.822-1.7.265-4.636a37.185,37.185,0,0,0-4.236-10.765C9.894,356.459,4.9,353.494,3.862,354.144s-.954,6.681,3.971,15.4" transform="translate(0 -247.816)" fill="#6eb43f"></path><path id="Path_183" data-name="Path 183" d="M74.688,354.731l-1.707-3.023c.412-.258.822-1.7.265-4.636a37.184,37.184,0,0,0-4.236-10.765c-4.925-8.722-9.913-11.688-10.957-11.036l-1.707-3.024c4.18-2.613,10.981,4.192,15.539,12.263a40.844,40.844,0,0,1,4.639,11.871c1.012,5.321-.44,7.477-1.836,8.35" transform="translate(-40.647 -227.404)" fill="#6eb43f"></path><path id="Path_209" data-name="Path 209" d="M.425,1.439,16.39,1.08l-.076,3.471L.348,4.91Z" transform="matrix(0.86, -0.511, 0.511, 0.86, 1.055, 102.285)" fill="#6eb43f"></path><path id="Path_210" data-name="Path 210" d="M.425,1.439,16.39,1.08l-.076,3.471L.348,4.91Z" transform="translate(17.69 131.745) rotate(-30.712)" fill="#6eb43f"></path><path id="Path_184" data-name="Path 184" d="M131.737,441.1h-11.9a10.816,10.816,0,0,1-10.52-11.066h3.343a7.379,7.379,0,0,0,7.177,7.549h11.9a7.379,7.379,0,0,0,7.177-7.549h3.343a10.816,10.816,0,0,1-10.52,11.066" transform="translate(-78.864 -304.001)" fill="#6eb43f"></path><path id="Path_185" data-name="Path 185" d="M142.256,324.762h-3.343v-7.467a14.085,14.085,0,0,0-3.845-9.762,12.711,12.711,0,0,0-9.279-4.045c-7.237,0-13.125,6.193-13.125,13.807v7.467H109.32v-7.467c0-9.552,7.388-17.323,16.468-17.323a15.951,15.951,0,0,1,11.644,5.076,17.672,17.672,0,0,1,4.824,12.248Z" transform="translate(-78.864 -212.058)" fill="#6eb43f"></path><rect id="Rectangle_66" data-name="Rectangle 66" width="12.758" height="3.517" transform="translate(40.545 106.748)" fill="#6eb43f"></rect><rect id="Rectangle_67" data-name="Rectangle 67" width="12.758" height="3.517" transform="translate(40.545 115.142)" fill="#6eb43f"></rect></g></g><g id="Group_115" data-name="Group 115" transform="translate(752)"><g id="Group_62" data-name="Group 62" clip-path="url(#clip-path-13)"><path id="Path_112" data-name="Path 112" d="M145.584,35.934a10.586,10.586,0,0,1-10.3-10.831h3.43a6.875,6.875,0,1,0,13.733,0V19.126a6.875,6.875,0,1,0-13.733,0h-3.43a10.31,10.31,0,1,1,20.593,0V25.1a10.586,10.586,0,0,1-10.3,10.831" transform="translate(-96.616 -5.801)" fill="#6eb43f"></path><path id="Path_113" data-name="Path 113" d="M122.844,199.312H96.493a6.592,6.592,0,0,1-6.275-5.018l-7.39-28,3.3-.965,7.391,28a3.12,3.12,0,0,0,2.97,2.375h26.352a4.45,4.45,0,0,0,0-8.889H104.818a2.9,2.9,0,0,1-2.776-2.258l-3.26-13.186a43.311,43.311,0,0,1-1.263-10.383V128.836a9.147,9.147,0,1,0-18.27,0v11.932H62.043a3.6,3.6,0,0,0,0,7.195H85.056a1.658,1.658,0,0,0,1.613-1.7V134.05H90.1v12.216a5.185,5.185,0,0,1-5.043,5.3H62.043a7.215,7.215,0,0,1,0-14.411H75.819v-8.324c0-7.289,5.637-13.218,12.566-13.218s12.565,5.929,12.565,13.218v32.153a39.512,39.512,0,0,0,1.152,9.475l3.151,12.743h17.591a8.063,8.063,0,0,1,0,16.106" transform="translate(-39.416 -80.852)" fill="#6eb43f"></path><path id="Path_211" data-name="Path 211" d="M1.649.478,5.2.393,4.79,17.18l-3.548.084Z" transform="translate(22.613 37.086) rotate(-54.266)" fill="#6eb43f"></path><path id="Path_114" data-name="Path 114" d="M79.78,142.593,62.252,130.138l-.061-.053a7.473,7.473,0,0,1-.962-10.14l2.655,2.286a3.733,3.733,0,0,0,.426,5.014L81.7,139.6Z" transform="translate(-42.623 -83.878)" fill="#6eb43f"></path><path id="Path_115" data-name="Path 115" d="M99.2,295.508a7.7,7.7,0,0,1-6.992-4.665L82.111,268.09a8.014,8.014,0,0,1,.069-6.658l16.387-34.9,3.076,1.6-16.387,34.9a4.252,4.252,0,0,0-.037,3.534l10.094,22.752a4.188,4.188,0,0,0,5.629,2.183,4.369,4.369,0,0,0,2.227-2.518,4.663,4.663,0,0,0-.125-3.437l-6.992-15.952a8.056,8.056,0,0,1,.649-7.63l6.9-10.371,2.81,2.069-6.9,10.37a4.276,4.276,0,0,0-.345,4.05l6.992,15.952a8.42,8.42,0,0,1,.226,6.2,7.889,7.889,0,0,1-4.019,4.546,7.311,7.311,0,0,1-3.169.725" transform="translate(-58.147 -158.412)" fill="#6eb43f"></path><rect id="Rectangle_39" data-name="Rectangle 39" width="3.43" height="53.968" transform="translate(23.264)" fill="#6eb43f"></rect><path id="Path_116" data-name="Path 116" d="M35.371,295.567h-3.43V272.123A23.307,23.307,0,0,1,39.614,254.7a19.63,19.63,0,0,0,6.461-14.673V229.185h3.43v10.839a23.309,23.309,0,0,1-7.673,17.425,19.627,19.627,0,0,0-6.461,14.673Z" transform="translate(-22.811 -160.27)" fill="#6eb43f"></path><rect id="Rectangle_40" data-name="Rectangle 40" width="13.585" height="3.608" transform="translate(46.233 67.111)" fill="#6eb43f"></rect><rect id="Rectangle_41" data-name="Rectangle 41" width="14.774" height="3.608" transform="translate(34.836 11.92)" fill="#6eb43f"></rect><path id="Path_117" data-name="Path 117" d="M214.942,243.382l-.97-3.461c4.228-1.312,5.264-5.157,4.867-8.051-.439-3.2-2.77-6.422-6.989-6.422h-2.582V221.84h2.582c6.237,0,9.755,4.932,10.384,9.515.64,4.662-1.366,10.189-7.291,12.028" transform="translate(-149.449 -155.134)" fill="#6eb43f"></path></g></g></g></g></g></svg>