<svg xmlns="http://www.w3.org/2000/svg" width="286" height="68.723" viewBox="0 0 286 68.723"><g id="Group_19" data-name="Group 19" transform="translate(-141 -74)"><g id="Group_18" data-name="Group 18" transform="translate(0 -8)"><path id="Path_40" data-name="Path 40" d="M121.576,82.458V68.513H97.153v3.775a.691.691,0,0,0,.693.693h20.8v9.553h-20.8A10.242,10.242,0,0,1,87.6,72.288V55.647A10.242,10.242,0,0,1,97.847,45.4h20.8v9.553h-20.8a.691.691,0,0,0-.693.693V58.96h24.423V55.647A10.242,10.242,0,0,1,131.823,45.4h13.483a10.242,10.242,0,0,1,10.247,10.247V82.458H146V68.513H131.129V82.458ZM146,58.96V55.647a.691.691,0,0,0-.693-.693H131.823a.691.691,0,0,0-.693.693V58.96Z" transform="translate(117.192 68.188)" fill="#00303c"></path><path id="Path_41" data-name="Path 41" d="M61.791,58.937A10.292,10.292,0,0,1,72.038,69.183v3.082A10.242,10.242,0,0,1,61.791,82.512H38.447A10.242,10.242,0,0,1,28.2,72.265V45.377h9.553V72.188a.691.691,0,0,0,.693.693H61.714a.691.691,0,0,0,.693-.693V69.106a.691.691,0,0,0-.693-.693H50.157A10.242,10.242,0,0,1,39.911,58.166V55.547A10.242,10.242,0,0,1,50.157,45.3H71.5v9.553H50.234a.691.691,0,0,0-.693.693v2.619a.691.691,0,0,0,.693.693H61.791Z" transform="translate(130.828 68.211)" fill="#00303c"></path><circle id="Ellipse_1" data-name="Ellipse 1" cx="5.008" cy="5.008" r="5.008" transform="translate(158.643 99.643)" fill="#6eb43f"></circle><path id="Path_42" data-name="Path 42" d="M18.9,39.532A14.987,14.987,0,0,1,12.35,27.051a15.178,15.178,0,1,1,29.508,5.008h7.781a21.686,21.686,0,0,0,.539-5.008A22.689,22.689,0,1,0,18.9,48.007V39.532Z" transform="translate(136.2 77.6)" fill="#6eb43f" fill-rule="evenodd"></path></g><g id="Group_17" data-name="Group 17" transform="translate(5.02 -7.781)"><path id="Path_1" data-name="Path 1" d="M187.8,67.6h1.37v7.532H187.8Z" transform="translate(92.435 62.485)" fill="#00303c"></path><path id="Path_2" data-name="Path 2" d="M192.8,67.6h1.75l3.652,5.63h0V67.6h1.37v7.532H197.9L194.17,69.35h0v5.782H192.8V67.6Z" transform="translate(91.239 62.485)" fill="#00303c"></path><path id="Path_3" data-name="Path 3" d="M206.283,68.817H204V67.6h5.935v1.217h-2.283v6.315h-1.37Z" transform="translate(88.56 62.485)" fill="#00303c"></path><path id="Path_4" data-name="Path 4" d="M214,67.6h5.022v1.217H215.37v1.826h3.424v1.217H215.37v2.054h3.88v1.217H214Z" transform="translate(86.169 62.485)" fill="#00303c"></path><path id="Path_5" data-name="Path 5" d="M223.576,67.6h2.587a5.024,5.024,0,0,1,1.065.076,2.344,2.344,0,0,1,.913.38,1.8,1.8,0,0,1,.609.685,2.21,2.21,0,0,1,.228,1.065,2.124,2.124,0,0,1-.457,1.37,1.969,1.969,0,0,1-1.293.685l1.978,3.348h-1.6l-1.75-3.2h-.989v3.2H223.5V67.6Zm2.359,3.2h.609a1.1,1.1,0,0,0,.533-.152.76.76,0,0,0,.38-.3,1.179,1.179,0,0,0,.152-.609,1.1,1.1,0,0,0-.152-.533.76.76,0,0,0-.38-.3,4.849,4.849,0,0,0-.533-.152h-1.674V70.8Z" transform="translate(83.897 62.485)" fill="#00303c"></path><path id="Path_6" data-name="Path 6" d="M233.4,67.6h1.75l3.652,5.63h0V67.6h1.37v7.532H238.5L234.77,69.35h0v5.782H233.4V67.6Z" transform="translate(81.529 62.485)" fill="#00303c"></path><path id="Path_7" data-name="Path 7" d="M247.772,67.6h1.141l3.272,7.532h-1.522l-.685-1.75h-3.272l-.685,1.75H244.5Zm1.674,4.641L248.3,69.2l-1.217,3.043Z" transform="translate(78.875 62.485)" fill="#00303c"></path><path id="Path_8" data-name="Path 8" d="M256.783,68.817H254.5V67.6h5.935v1.217h-2.282v6.315h-1.37Z" transform="translate(76.483 62.485)" fill="#00303c"></path><path id="Path_9" data-name="Path 9" d="M264.4,67.6h1.369v7.532H264.4Z" transform="translate(74.115 62.485)" fill="#00303c"></path><path id="Path_10" data-name="Path 10" d="M268.9,71.309a4.094,4.094,0,0,1,.3-1.674,4.708,4.708,0,0,1,.837-1.293,3.8,3.8,0,0,1,1.293-.837,4.974,4.974,0,0,1,1.6-.3,5.058,5.058,0,0,1,1.6.228,4.454,4.454,0,0,1,1.293.761,3.8,3.8,0,0,1,.837,1.293,3.871,3.871,0,0,1,.3,1.674,3.529,3.529,0,0,1-.3,1.6,3.477,3.477,0,0,1-.837,1.217,3.8,3.8,0,0,1-1.293.837,3.742,3.742,0,0,1-1.6.3,3.529,3.529,0,0,1-1.6-.3,4.454,4.454,0,0,1-1.293-.761,4.347,4.347,0,0,1-.837-1.217A3.017,3.017,0,0,1,268.9,71.309Zm1.37-.076a5.871,5.871,0,0,0,.152,1.141,5.672,5.672,0,0,0,.533.913,3.378,3.378,0,0,0,.837.609,2.6,2.6,0,0,0,2.13,0,2.158,2.158,0,0,0,.837-.609,2.631,2.631,0,0,0,.533-.913,2.6,2.6,0,0,0,.152-1.141,4.491,4.491,0,0,0-.152-1.065,3.141,3.141,0,0,0-.533-.837,3.379,3.379,0,0,0-.837-.609,2.6,2.6,0,0,0-2.13,0,2.158,2.158,0,0,0-.837.609,3.141,3.141,0,0,0-.533.837A4.487,4.487,0,0,0,270.27,71.232Z" transform="translate(73.039 62.581)" fill="#00303c"></path><path id="Path_11" data-name="Path 11" d="M282.1,67.6h1.75l3.652,5.63h0V67.6h1.369v7.532H287.2l-3.728-5.782h0v5.782H282.1V67.6Z" transform="translate(69.882 62.485)" fill="#00303c"></path><path id="Path_12" data-name="Path 12" d="M296.448,67.6h1.141l3.272,7.532h-1.522l-.685-1.75h-3.348l-.685,1.75H293.1Zm1.674,4.641L296.98,69.2l-1.217,3.043Z" transform="translate(67.252 62.485)" fill="#00303c"></path><path id="Path_13" data-name="Path 13" d="M305.4,67.6h1.37v6.315h3.2v1.217H305.4Z" transform="translate(64.31 62.485)" fill="#00303c"></path><path id="Path_14" data-name="Path 14" d="M321.737,69.2a1.023,1.023,0,0,0-.533-.457,2.251,2.251,0,0,0-.761-.152.965.965,0,0,0-.457.076.581.581,0,0,0-.38.152.594.594,0,0,0-.3.3.965.965,0,0,0-.076.457.864.864,0,0,0,.228.609,2.736,2.736,0,0,0,.685.38c.228.076.533.228.837.3a2.812,2.812,0,0,1,.837.38,2.9,2.9,0,0,1,.685.685A2.209,2.209,0,0,1,322.726,73a2.43,2.43,0,0,1-.228,1.065,2.98,2.98,0,0,1-.609.761,1.736,1.736,0,0,1-.913.457,4.491,4.491,0,0,1-1.065.152,4.308,4.308,0,0,1-1.37-.228,3.01,3.01,0,0,1-1.141-.761l.989-.989a2.316,2.316,0,0,0,.609.609,1.534,1.534,0,0,0,.837.228.965.965,0,0,0,.457-.076c.152-.076.3-.076.457-.228.152-.076.228-.228.3-.3a1.082,1.082,0,0,0,.152-.457.749.749,0,0,0-.228-.609,1.471,1.471,0,0,0-.685-.38c-.228-.076-.533-.228-.837-.3a2.812,2.812,0,0,1-.837-.38,4.919,4.919,0,0,1-.685-.609,2.209,2.209,0,0,1-.228-1.065,1.9,1.9,0,0,1,.228-.989,1.8,1.8,0,0,1,.609-.685,5.068,5.068,0,0,1,.913-.457,4.453,4.453,0,0,1,.989-.152,5.873,5.873,0,0,1,1.141.152,2.684,2.684,0,0,1,.989.609Z" transform="translate(61.44 62.485)" fill="#00303c"></path><path id="Path_15" data-name="Path 15" d="M329.472,67.6h1.141l3.272,7.532h-1.522l-.685-1.75h-3.272l-.685,1.75H326.2Zm1.75,4.641L330.08,69.2l-1.217,3.043Z" transform="translate(59.336 62.485)" fill="#00303c"></path><path id="Path_16" data-name="Path 16" d="M338.5,67.6h4.869v1.217h-3.5V70.8h3.348v1.217H339.87v3.119H338.5Z" transform="translate(56.394 62.485)" fill="#00303c"></path><path id="Path_17" data-name="Path 17" d="M347.5,67.6h5.022v1.217h-3.652v1.826h3.5v1.217h-3.5v2.054h3.88v1.217h-5.174V67.6Z" transform="translate(54.242 62.485)" fill="#00303c"></path><path id="Path_18" data-name="Path 18" d="M358.382,68.817H356.1V67.6h5.935v1.217h-2.283v6.315h-1.37Z" transform="translate(52.185 62.485)" fill="#00303c"></path><path id="Path_19" data-name="Path 19" d="M367.715,71.937,364.9,67.6h1.674l1.826,2.967,1.9-2.967h1.6l-2.815,4.337v3.2h-1.369Z" transform="translate(50.08 62.485)" fill="#00303c"></path><path id="Path_20" data-name="Path 20" d="M187.9,83.6h5.022v1.217H189.27v1.826h3.424v1.217H189.27v2.054h3.88v1.217h-5.174V83.6Z" transform="translate(92.411 58.659)" fill="#00303c"></path><path id="Path_21" data-name="Path 21" d="M204.645,91.061h-4.413a3.529,3.529,0,0,1-1.6-.3A3.64,3.64,0,0,1,197.341,90a2.7,2.7,0,0,1-.837-1.217,3.871,3.871,0,0,1-.3-1.674,3.407,3.407,0,0,1,.3-1.522,6.9,6.9,0,0,1,.837-1.217,3.64,3.64,0,0,1,1.293-.761,4.919,4.919,0,0,1,1.522-.3,3.407,3.407,0,0,1,1.522.3,4.454,4.454,0,0,1,1.293.761,2.7,2.7,0,0,1,.837,1.217,4.919,4.919,0,0,1,.3,1.522,4.491,4.491,0,0,1-.152,1.065,2.38,2.38,0,0,1-.38.761,2.051,2.051,0,0,1-.533.609,2.312,2.312,0,0,1-.533.38h2.13Zm-4.565-6.543a2.106,2.106,0,0,0-.989.228,1.942,1.942,0,0,0-.761.533,3.141,3.141,0,0,0-.533.837,2.6,2.6,0,0,0,0,2.13,3.141,3.141,0,0,0,.533.837,1.969,1.969,0,0,0,.837.533,2.343,2.343,0,0,0,.989.228,2.685,2.685,0,0,0,1.065-.228,2.286,2.286,0,0,0,1.37-1.37,2.6,2.6,0,0,0,0-2.13,2.286,2.286,0,0,0-1.37-1.37A3.053,3.053,0,0,0,200.08,84.517Z" transform="translate(90.426 58.731)" fill="#00303c"></path><path id="Path_22" data-name="Path 22" d="M214.887,88.393a3.154,3.154,0,0,1-.228,1.217,2.736,2.736,0,0,1-.609.913,4.314,4.314,0,0,1-.989.609,3.361,3.361,0,0,1-2.435,0,2.685,2.685,0,0,1-.989-.609,1.94,1.94,0,0,1-.609-.913,3.155,3.155,0,0,1-.228-1.217V83.6h1.37v4.717a1.89,1.89,0,0,0,.076.609,1.227,1.227,0,0,0,.3.533,3.31,3.31,0,0,0,.533.457,2.349,2.349,0,0,0,.837.152,2.735,2.735,0,0,0,.837-.152,1.023,1.023,0,0,0,.533-.457,1.907,1.907,0,0,0,.3-.533,1.675,1.675,0,0,0,.076-.609V83.6h1.37v4.793Z" transform="translate(87.412 58.659)" fill="#00303c"></path><path id="Path_23" data-name="Path 23" d="M219.2,83.6h1.37v7.532H219.2Z" transform="translate(84.925 58.659)" fill="#00303c"></path><path id="Path_24" data-name="Path 24" d="M223.376,83.6h2.511a5.024,5.024,0,0,1,1.065.076,2.343,2.343,0,0,1,.913.38,1.8,1.8,0,0,1,.609.685,2.209,2.209,0,0,1,.228,1.065,2.54,2.54,0,0,1-.228,1.141,1.493,1.493,0,0,1-.685.685,2.158,2.158,0,0,1-.989.3,5.759,5.759,0,0,1-1.141.076h-.989v3.119H223.3V83.6Zm2.13,3.272h.609a1.1,1.1,0,0,0,.533-.152,1.592,1.592,0,0,0,.457-.3,1.179,1.179,0,0,0,.152-.609.887.887,0,0,0-.152-.533.76.76,0,0,0-.38-.3,1.1,1.1,0,0,0-.533-.152H224.67v2.13h.837Z" transform="translate(83.945 58.659)" fill="#00303c"></path><path id="Path_25" data-name="Path 25" d="M232.3,83.6h2.054l1.978,5.25,2.054-5.25h2.054v7.532h-1.293V84.893h0l-2.283,6.239h-.989l-2.283-6.239h0v6.239H232.3Z" transform="translate(81.792 58.659)" fill="#00303c"></path><path id="Path_26" data-name="Path 26" d="M245.5,83.6h5.022v1.217H246.87v1.826h3.5v1.217h-3.5v2.054h3.88v1.217h-5.174V83.6Z" transform="translate(78.635 58.659)" fill="#00303c"></path><path id="Path_27" data-name="Path 27" d="M254.3,83.6h1.75l3.652,5.63h0V83.6h1.37v7.532H259.4L255.67,85.35h0v5.782H254.3Z" transform="translate(76.531 58.659)" fill="#00303c"></path><path id="Path_28" data-name="Path 28" d="M266.982,84.817H264.7V83.6h5.935v1.217h-2.283v6.315h-1.37Z" transform="translate(74.044 58.659)" fill="#00303c"></path><path id="Path_29" data-name="Path 29" d="M280.572,83.6h1.141l3.272,7.532h-1.522l-.685-1.75h-3.272l-.685,1.75H277.3Zm1.674,4.641L281.1,85.2l-1.217,3.043Z" transform="translate(71.03 58.659)" fill="#00303c"></path><path id="Path_30" data-name="Path 30" d="M292.237,85.2a1.023,1.023,0,0,0-.533-.457,2.251,2.251,0,0,0-.761-.152.965.965,0,0,0-.456.076.581.581,0,0,0-.38.152.594.594,0,0,0-.3.3.965.965,0,0,0-.076.457.864.864,0,0,0,.228.609,2.737,2.737,0,0,0,.685.38c.228.076.533.228.837.3a2.813,2.813,0,0,1,.837.38,2.9,2.9,0,0,1,.685.685A2.209,2.209,0,0,1,293.226,89,2.43,2.43,0,0,1,293,90.067a2.98,2.98,0,0,1-.609.761,1.735,1.735,0,0,1-.913.457,4.491,4.491,0,0,1-1.065.152,4.308,4.308,0,0,1-1.37-.228,3.01,3.01,0,0,1-1.141-.761l.989-.989a2.315,2.315,0,0,0,.609.609,1.534,1.534,0,0,0,.837.228.965.965,0,0,0,.456-.076c.152-.076.3-.076.457-.228.152-.076.228-.228.3-.3a1.081,1.081,0,0,0,.152-.456.749.749,0,0,0-.228-.609,1.471,1.471,0,0,0-.685-.38c-.228-.076-.533-.228-.837-.3a2.813,2.813,0,0,1-.837-.38,4.922,4.922,0,0,1-.685-.609,2.209,2.209,0,0,1-.228-1.065,1.9,1.9,0,0,1,.228-.989,1.8,1.8,0,0,1,.609-.685,5.068,5.068,0,0,1,.913-.457,4.452,4.452,0,0,1,.989-.152,5.872,5.872,0,0,1,1.141.152,2.684,2.684,0,0,1,.989.609Z" transform="translate(68.495 58.659)" fill="#00303c"></path><path id="Path_31" data-name="Path 31" d="M300.537,85.2a1.023,1.023,0,0,0-.533-.457,2.252,2.252,0,0,0-.761-.152.965.965,0,0,0-.457.076.581.581,0,0,0-.38.152.594.594,0,0,0-.3.3.965.965,0,0,0-.076.457.864.864,0,0,0,.228.609,2.738,2.738,0,0,0,.685.38c.228.076.533.228.837.3a2.812,2.812,0,0,1,.837.38,2.905,2.905,0,0,1,.685.685A2.209,2.209,0,0,1,301.526,89a2.43,2.43,0,0,1-.228,1.065,2.979,2.979,0,0,1-.609.761,1.736,1.736,0,0,1-.913.457,4.49,4.49,0,0,1-1.065.152,4.308,4.308,0,0,1-1.37-.228,3.01,3.01,0,0,1-1.141-.761l.989-.989a2.316,2.316,0,0,0,.609.609,1.534,1.534,0,0,0,.837.228.965.965,0,0,0,.457-.076c.152-.076.3-.076.457-.228.152-.076.228-.228.3-.3A1.081,1.081,0,0,0,300,89.23a.749.749,0,0,0-.228-.609,1.471,1.471,0,0,0-.685-.38c-.228-.076-.533-.228-.837-.3a2.813,2.813,0,0,1-.837-.38,4.922,4.922,0,0,1-.685-.609,2.21,2.21,0,0,1-.228-1.065,1.9,1.9,0,0,1,.228-.989,1.8,1.8,0,0,1,.609-.685,5.065,5.065,0,0,1,.913-.457,4.453,4.453,0,0,1,.989-.152,5.873,5.873,0,0,1,1.141.152,2.684,2.684,0,0,1,.989.609Z" transform="translate(66.51 58.659)" fill="#00303c"></path><path id="Path_32" data-name="Path 32" d="M304.8,87.309a4.1,4.1,0,0,1,.3-1.674,4.712,4.712,0,0,1,.837-1.293,3.8,3.8,0,0,1,1.293-.837,4.973,4.973,0,0,1,1.6-.3,5.059,5.059,0,0,1,1.6.228,4.456,4.456,0,0,1,1.293.761,3.8,3.8,0,0,1,.837,1.293,3.871,3.871,0,0,1,.3,1.674,3.53,3.53,0,0,1-.3,1.6,3.477,3.477,0,0,1-.837,1.217,3.8,3.8,0,0,1-1.293.837,3.742,3.742,0,0,1-1.6.3,3.529,3.529,0,0,1-1.6-.3,4.454,4.454,0,0,1-1.293-.761,4.351,4.351,0,0,1-.837-1.217A4.14,4.14,0,0,1,304.8,87.309Zm1.446-.076a5.869,5.869,0,0,0,.152,1.141,5.675,5.675,0,0,0,.533.913,3.378,3.378,0,0,0,.837.609,2.6,2.6,0,0,0,2.13,0,2.158,2.158,0,0,0,.837-.609,2.631,2.631,0,0,0,.533-.913,2.6,2.6,0,0,0,.152-1.141,4.491,4.491,0,0,0-.152-1.065,3.14,3.14,0,0,0-.533-.837,3.379,3.379,0,0,0-.837-.609,2.6,2.6,0,0,0-2.13,0,2.158,2.158,0,0,0-.837.609,3.143,3.143,0,0,0-.533.837A4.488,4.488,0,0,0,306.246,87.232Z" transform="translate(64.454 58.755)" fill="#00303c"></path><path id="Path_33" data-name="Path 33" d="M322.354,85.278a1.951,1.951,0,0,0-.837-.609,2.7,2.7,0,0,0-.761-.152,2.43,2.43,0,0,0-1.065.228,2.158,2.158,0,0,0-.837.609,3.144,3.144,0,0,0-.533.837,2.418,2.418,0,0,0-.152,1.065,5.876,5.876,0,0,0,.152,1.141,5.68,5.68,0,0,0,.533.913,3.378,3.378,0,0,0,.837.609,2.43,2.43,0,0,0,1.065.228,2.026,2.026,0,0,0,.913-.228,3.317,3.317,0,0,0,.837-.685l1.141.761a2.528,2.528,0,0,1-1.217.989,4.347,4.347,0,0,1-3.2,0,4.454,4.454,0,0,1-1.293-.761,4.35,4.35,0,0,1-.837-1.217,3.529,3.529,0,0,1-.3-1.6,4.1,4.1,0,0,1,.3-1.674,4.711,4.711,0,0,1,.837-1.293,3.8,3.8,0,0,1,1.293-.837,4.974,4.974,0,0,1,1.6-.3,3.088,3.088,0,0,1,1.446.3,2.715,2.715,0,0,1,1.217.913Z" transform="translate(61.584 58.731)" fill="#00303c"></path><path id="Path_34" data-name="Path 34" d="M327.1,83.6h1.37v7.532H327.1Z" transform="translate(59.12 58.659)" fill="#00303c"></path><path id="Path_35" data-name="Path 35" d="M333.472,83.6h1.141l3.272,7.532h-1.522l-.685-1.75h-3.272l-.685,1.75H330.2Zm1.75,4.641L334.08,85.2l-1.217,3.043Z" transform="translate(58.379 58.659)" fill="#00303c"></path><path id="Path_36" data-name="Path 36" d="M341.682,84.817H339.4V83.6h5.935v1.217h-2.283v6.315h-1.37Z" transform="translate(56.179 58.659)" fill="#00303c"></path><path id="Path_37" data-name="Path 37" d="M348.7,83.6h1.37v7.532H348.7Z" transform="translate(53.955 58.659)" fill="#00303c"></path><path id="Path_38" data-name="Path 38" d="M352.3,87.309a4.1,4.1,0,0,1,.3-1.674,4.71,4.71,0,0,1,.837-1.293,3.8,3.8,0,0,1,1.293-.837,4.973,4.973,0,0,1,1.6-.3,5.058,5.058,0,0,1,1.6.228,4.454,4.454,0,0,1,1.293.761,3.8,3.8,0,0,1,.837,1.293,3.87,3.87,0,0,1,.3,1.674,3.529,3.529,0,0,1-.3,1.6,3.476,3.476,0,0,1-.837,1.217,3.8,3.8,0,0,1-1.293.837,3.742,3.742,0,0,1-1.6.3,3.529,3.529,0,0,1-1.6-.3,4.454,4.454,0,0,1-1.293-.761,4.349,4.349,0,0,1-.837-1.217A4.139,4.139,0,0,1,352.3,87.309Zm1.446-.076a5.871,5.871,0,0,0,.152,1.141,5.668,5.668,0,0,0,.533.913,3.378,3.378,0,0,0,.837.609,2.6,2.6,0,0,0,2.13,0,2.158,2.158,0,0,0,.837-.609,2.63,2.63,0,0,0,.533-.913,2.6,2.6,0,0,0,.152-1.141,4.489,4.489,0,0,0-.152-1.065,3.141,3.141,0,0,0-.533-.837,3.378,3.378,0,0,0-.837-.609,2.6,2.6,0,0,0-2.13,0,2.158,2.158,0,0,0-.837.609,3.14,3.14,0,0,0-.533.837A4.488,4.488,0,0,0,353.746,87.232Z" transform="translate(53.094 58.755)" fill="#00303c"></path><path id="Path_39" data-name="Path 39" d="M364.8,83.6h1.75l3.652,5.63h0V83.6h1.37v7.532H369.9l-3.728-5.782h0v5.782H364.8Z" transform="translate(50.104 58.659)" fill="#00303c"></path></g></g></svg>